<svg width="1024" height="1024" viewBox="0 0 1024 1024" xmlns="http://www.w3.org/2000/svg">
  <defs>
    <linearGradient id="bg" x1="0%" y1="0%" x2="0%" y2="100%">
      <stop offset="0%" style="stop-color:#1e40af;stop-opacity:1" />
      <stop offset="100%" style="stop-color:#1e3a8a;stop-opacity:1" />
    </linearGradient>
  </defs>
  
  <!-- Background -->
  <rect width="1024" height="1024" fill="url(#bg)" rx="200"/>
  
  <!-- Menorah - simple and clear design -->
  <g transform="translate(512, 150)">
    <!-- Base -->
    <rect x="-100" y="650" width="200" height="50" fill="#fbbf24" rx="10"/>
    <rect x="-70" y="600" width="140" height="60" fill="#fbbf24" rx="8"/>
    
    <!-- Central column -->
    <rect x="-25" y="100" width="50" height="500" fill="#fbbf24" rx="8"/>
    
    <!-- Arms - symmetric design -->
    <!-- Right side -->
    <path d="M 25,200 C 25,200 120,200 120,280 L 120,480" 
          stroke="#fbbf24" stroke-width="40" fill="none" stroke-linecap="round"/>
    <path d="M 25,300 C 25,300 180,300 180,380 L 180,480" 
          stroke="#fbbf24" stroke-width="40" fill="none" stroke-linecap="round"/>
    <path d="M 25,400 C 25,400 240,400 240,480 L 240,480" 
          stroke="#fbbf24" stroke-width="40" fill="none" stroke-linecap="round"/>
    
    <!-- Left side -->
    <path d="M -25,200 C -25,200 -120,200 -120,280 L -120,480" 
          stroke="#fbbf24" stroke-width="40" fill="none" stroke-linecap="round"/>
    <path d="M -25,300 C -25,300 -180,300 -180,380 L -180,480" 
          stroke="#fbbf24" stroke-width="40" fill="none" stroke-linecap="round"/>
    <path d="M -25,400 C -25,400 -240,400 -240,480 L -240,480" 
          stroke="#fbbf24" stroke-width="40" fill="none" stroke-linecap="round"/>
    
    <!-- Candles -->
    <ellipse cx="0" cy="90" rx="30" ry="12" fill="#f59e0b"/>
    <ellipse cx="120" cy="470" rx="30" ry="12" fill="#f59e0b"/>
    <ellipse cx="180" cy="470" rx="30" ry="12" fill="#f59e0b"/>
    <ellipse cx="240" cy="470" rx="30" ry="12" fill="#f59e0b"/>
    <ellipse cx="-120" cy="470" rx="30" ry="12" fill="#f59e0b"/>
    <ellipse cx="-180" cy="470" rx="30" ry="12" fill="#f59e0b"/>
    <ellipse cx="-240" cy="470" rx="30" ry="12" fill="#f59e0b"/>
    
    <!-- Flames -->
    <g opacity="0.95">
      <!-- Center -->
      <ellipse cx="0" cy="50" rx="20" ry="40" fill="#fef3c7"/>
      <ellipse cx="0" cy="45" rx="15" ry="30" fill="#fbbf24"/>
      
      <!-- Right -->
      <ellipse cx="120" cy="430" rx="18" ry="35" fill="#fef3c7"/>
      <ellipse cx="120" cy="425" rx="13" ry="25" fill="#fbbf24"/>
      
      <ellipse cx="180" cy="430" rx="18" ry="35" fill="#fef3c7"/>
      <ellipse cx="180" cy="425" rx="13" ry="25" fill="#fbbf24"/>
      
      <ellipse cx="240" cy="430" rx="18" ry="35" fill="#fef3c7"/>
      <ellipse cx="240" cy="425" rx="13" ry="25" fill="#fbbf24"/>
      
      <!-- Left -->
      <ellipse cx="-120" cy="430" rx="18" ry="35" fill="#fef3c7"/>
      <ellipse cx="-120" cy="425" rx="13" ry="25" fill="#fbbf24"/>
      
      <ellipse cx="-180" cy="430" rx="18" ry="35" fill="#fef3c7"/>
      <ellipse cx="-180" cy="425" rx="13" ry="25" fill="#fbbf24"/>
      
      <ellipse cx="-240" cy="430" rx="18" ry="35" fill="#fef3c7"/>
      <ellipse cx="-240" cy="425" rx="13" ry="25" fill="#fbbf24"/>
    </g>
  </g>
</svg>
